<?xml version="1.0" encoding="UTF-8"?>
<svg version="1.1" xmlns="http://www.w3.org/2000/svg" width="500" height="500">
<path d="M0 0 C3.62140464 1.81070232 5.65787249 3.34928122 8.5625 6.0625 C12.05918953 9.27291085 15.60799393 12.34456239 19.3125 15.3125 C24.12585437 19.20255931 28.6476145 23.32871834 33.16113281 27.55566406 C37.37393141 31.47878593 41.76395352 35.11896414 46.25390625 38.72265625 C49.26319052 41.21826469 52.13938654 43.83765143 55 46.5 C58.73327255 49.97419243 62.52371111 53.3006871 66.5 56.5 C71.09596361 60.19935221 75.45080998 64.09228683 79.77441406 68.10083008 C83.43999509 71.49895227 87.17485173 74.78339804 91 78 C95.69677751 76.55283792 98.67768585 73.78937241 102.125 70.4375 C107.02244426 65.79027998 112.05304436 61.44001945 117.3203125 57.2109375 C120.13253315 54.8906505 122.81797263 52.46928866 125.5 50 C129.05670244 46.72581577 132.67161811 43.59357567 136.4375 40.5625 C140.97316443 36.90428985 145.2570117 33.05257035 149.51928711 29.08618164 C152.75193975 26.09573 156.06696766 23.26220993 159.5 20.5 C164.59923578 16.39699697 169.39337368 12.04083547 174.17578125 7.578125 C177.05005834 4.95430359 179.99317397 2.46941695 183 0 C186.44779086 1.50006391 188.82360533 3.50409262 191.5625 6.0625 C195.08042208 9.29198338 198.65182375 12.38460518 202.375 15.375 C206.92860712 19.05636689 211.23582516 22.92774473 215.51904297 26.91357422 C218.75176204 29.90412641 222.06687666 32.73771685 225.5 35.5 C230.01858176 39.1356405 234.27983329 42.96836402 238.52172852 46.91625977 C241.7329905 49.88715628 245.02627815 52.69961077 248.4375 55.4375 C253.29353498 59.34481613 257.86310278 63.4930344 262.41650391 67.74291992 C266.19414635 71.26807065 270.03731346 74.68240197 274 78 C278.69677751 76.55283792 281.67768585 73.78937241 285.125 70.4375 C290.02244426 65.79027998 295.05304436 61.44001945 300.3203125 57.2109375 C303.13253315 54.8906505 305.81797263 52.46928866 308.5 50 C312.05670244 46.72581577 315.67161811 43.59357567 319.4375 40.5625 C323.97316443 36.90428985 328.2570117 33.05257035 332.51928711 29.08618164 C336.6012685 25.31003577 340.86802802 21.8112376 345.203125 18.328125 C349.31452874 14.90578334 353.19049266 11.25097102 357.078125 7.578125 C360.19866374 4.82470846 363.61355211 2.41889135 367 0 C367 61.38 367 122.76 367 186 C245.89 186 124.78 186 0 186 C0 124.62 0 63.24 0 0 Z " fill="#F9B335" transform="translate(66,157)"/>
</svg>
